PathFileType	4	(X/Y/Z)	2014001\dynamic\2014001_C3_04.trc
DataRate	CameraRate	NumFrames	NumMarkers	Units	OrigDataRate	OrigDataStartFrame	OrigNumFrames
100.000000	100.000000	4	52	mm	100.000000	111	178
Frame#	Time	L_IAS			L_IPS			R_IPS			R_IAS			L_FTC			L_FLE			L_FME			L_FAX			L_TTC			L_FAL			L_TAM			L_FCC			L_FM1			L_FM2			L_FM5			R_FTC			R_FLE			R_FME			R_FAX			R_TTC			R_FAL			R_TAM			R_FCC			R_FM1			R_FM2			R_FM5			CV7			TV10			SXS			SJN			L_SIA			L_SRS			L_SAA			L_SAE			L_HLE			L_HME			L_UOA			L_RSP			L_UHE			L_HM2			L_HM5			R_SIA			R_SRS			R_SAA			R_SAE			R_HLE			R_HME			R_UOA			R_RSP			R_UHE			R_HM2			R_HM5			
		X1	Y1	Z1	X2	Y2	Z2	X3	Y3	Z3	X4	Y4	Z4	X5	Y5	Z5	X6	Y6	Z6	X7	Y7	Z7	X8	Y8	Z8	X9	Y9	Z9	X10	Y10	Z10	X11	Y11	Z11	X12	Y12	Z12	X13	Y13	Z13	X14	Y14	Z14	X15	Y15	Z15	X16	Y16	Z16	X17	Y17	Z17	X18	Y18	Z18	X19	Y19	Z19	X20	Y20	Z20	X21	Y21	Z21	X22	Y22	Z22	X23	Y23	Z23	X24	Y24	Z24	X25	Y25	Z25	X26	Y26	Z26	X27	Y27	Z27	X28	Y28	Z28	X29	Y29	Z29	X30	Y30	Z30	X31	Y31	Z31	X32	Y32	Z32	X33	Y33	Z33	X34	Y34	Z34	X35	Y35	Z35	X36	Y36	Z36	X37	Y37	Z37	X38	Y38	Z38	X39	Y39	Z39	X40	Y40	Z40	X41	Y41	Z41	X42	Y42	Z42	X43	Y43	Z43	X44	Y44	Z44	X45	Y45	Z45	X46	Y46	Z46	X47	Y47	Z47	X48	Y48	Z48	X49	Y49	Z49	X50	Y50	Z50	X51	Y51	Z51	X52	Y52	Z52	

112	1.11	136.0891265869141	852.9072875976567	-714.3455810546877	199.5068359375001	887.7186889648442	-533.661315917969	287.4520874023439	890.156860351563	-528.4034423828127	376.1318969726564	857.6721191406255	-701.0064697265627	75.02918243408206	763.2688598632815	-647.355895996094	101.5515213012696	427.5201416015627	-769.6575317382817	217.9151306152345	425.4310302734377	-805.172241210938	100.3415985107422	366.6668090820314	-773.5275878906255	136.7601470947266	373.5031738281251	-846.4224243164067	134.1791076660157	67.85788726806643	-906.1213989257817	215.1591796875001	94.74389648437503	-933.2241821289067	188.8309631347657	15.27114868164063	-893.8334960937505	180.8086547851563	104.5224838256837	-1050.807739257813	124.1075515747071	107.5394592285157	-1042.544189453125	93.99375152587893	65.89307403564456	-1008.847045898438	427.8108520507815	771.9125976562505	-591.9241943359377	377.9682006835939	428.8892822265627	-525.0937500000002	261.3930664062501	412.9290466308596	-548.8357543945315	377.4550170898439	368.7503662109376	-489.0307922363284	333.1465454101564	346.4439392089845	-551.3120727539065	311.8749389648439	71.91796875000003	-379.0580444335939	232.1916046142579	86.82056427001956	-425.3887329101565	250.5665893554689	42.50989913940431	-334.8908691406251	249.9100952148439	21.25690078735352	-519.6138305664065	313.8743591308595	28.26150512695314	-522.9730224609377	355.117645263672	16.5638828277588	-458.8403015136721	260.046600341797	1353.5654296875	-575.9458618164065	256.8998107910157	1126.056518554688	-508.5668640136721	242.8367614746095	1130.63818359375	-745.538269042969	245.9886169433595	1294.1875	-702.2009887695315	172.4990692138672	1162.680297851563	-498.8924255371096	179.7378692626954	1294.024169921875	-520.5496215820315	68.07292938232425	1291.57666015625	-577.3474121093752	74.11164093017581	1302.5126953125	-620.410339355469	-5.220255851745607	1031.8427734375	-539.3352050781252	75.1537780761719	997.0932006835942	-530.625183105469	30.61643791198732	1004.222351074219	-511.9295959472659	-8.014256477355961	784.5793457031255	-574.5847778320315	-61.20941162109378	803.3513183593755	-515.5823364257815	-24.93039512634279	697.4111328125002	-575.8833618164065	-67.87156677246097	729.9736328125002	-487.7867126464846	382.6933898925782	1169.16455078125	-521.6655273437502	354.325897216797	1289.414794921875	-542.634948730469	449.1336059570315	1289.66162109375	-633.839294433594	428.7181091308596	1294.902587890625	-680.0377197265627	527.2703247070315	1002.718322753907	-712.0180664062502	456.5830688476565	970.521850585938	-682.5967407226565	502.6553039550784	964.1536254882817	-689.6798095703127	475.0105895996096	864.8811645507817	-893.845092773438	542.8203735351565	837.4743652343755	-857.407104492188	485.7342224121096	805.7503051757817	-967.1655883789067	540.2194824218752	764.1647949218752	-891.290893554688	
113	1.12	135.9870758056641	850.8606567382817	-726.671569824219	198.7004852294923	885.662719726563	-545.5947875976565	286.5240173339845	888.485229492188	-540.264099121094	376.134490966797	855.9469604492192	-712.5569458007815	74.87031555175784	761.0930786132815	-659.929138183594	103.1129608154297	425.9036560058596	-782.8477172851567	219.6531066894532	424.6226806640627	-817.7092285156255	102.1901626586915	365.1172485351564	-787.0917968750005	138.8203277587891	372.5943603515626	-859.9807128906255	137.1973724365235	67.41587829589847	-921.722045898438	218.1574707031251	94.61003875732425	-948.5168457031255	192.0297088623048	15.04320907592774	-909.372436523438	184.1213378906251	104.9266967773438	-1066.206665039063	127.3953018188477	107.4049835205079	-1058.191650390625	97.50360870361334	65.34910583496097	-1024.800659179688	427.7420043945315	770.7255859375005	-602.7747802734377	378.2325134277345	428.481628417969	-532.8728637695315	261.7213745117189	411.8047790527346	-556.9902954101565	377.9458312988282	368.8018188476564	-495.9021301269534	333.5775756835939	345.4371643066407	-557.702331542969	312.4012756347657	73.93585968017581	-380.1635131835939	232.7362365722657	88.29998779296878	-426.5989379882815	251.2167205810548	45.55900955200197	-335.3079528808595	250.2642364501954	21.48261451721192	-519.7874755859377	314.1152648925782	28.29146575927736	-523.241882324219	355.2134094238282	16.70920181274415	-459.0034484863284	258.9312438964845	1351.720703125	-587.1639404296877	256.050994873047	1124.084350585938	-520.2388916015627	242.0722198486329	1128.703002929688	-757.188171386719	244.8581390380861	1292.24072265625	-713.7056274414065	171.6951904296876	1160.388061523438	-510.4648437500002	178.6834411621094	1291.871704101563	-532.0178222656252	66.95616149902347	1289.141235351563	-588.7332153320315	72.93572998046878	1300.12158203125	-631.7896118164065	-5.804243087768556	1029.4150390625	-550.532165527344	74.51859283447268	994.5668945312505	-542.3592529296877	30.25098419189455	1001.886291503907	-523.2276611328127	-8.983357429504398	782.1560668945317	-585.101257324219	-61.76721191406253	801.0978393554692	-525.770446777344	-25.99878120422365	694.989685058594	-586.0155029296877	-68.3023376464844	727.8406372070315	-497.7819824218752	381.6002807617189	1167.370971679688	-533.0606079101565	353.1343688964845	1287.687133789063	-554.0957641601565	448.001159667969	1287.903686523438	-645.3779296875002	427.477233886719	1293.111450195313	-691.540710449219	526.363220214844	1001.073486328125	-723.7866210937502	455.6232910156252	968.745971679688	-694.628601074219	501.7565917968752	962.390014648438	-701.5728149414065	473.969909667969	864.2997436523442	-906.4458618164067	541.7052001953127	836.566040039063	-870.1372070312505	484.7931823730471	805.9000854492192	-980.2015991210942	539.0710449218752	763.5413818359377	-904.6278686523442	
114	1.13	135.8058319091797	849.1623535156255	-739.2760009765627	197.894500732422	883.8066406250005	-557.8344726562502	285.5782775878907	886.9507446289067	-552.4656372070315	376.0619201660157	854.295288085938	-724.4566040039065	74.63173675537112	759.2761840820315	-672.9011230468752	104.5175323486329	424.7064208984377	-796.6299438476567	221.170623779297	424.1337585449221	-830.6562500000005	103.8437957763672	363.8931274414064	-800.8842163085942	140.8301696777344	371.5664062500001	-873.6899414062505	140.2224884033204	66.51483154296878	-934.8344726562505	221.2259063720704	93.67072296142581	-961.5481567382817	195.2227783203126	14.55601024627686	-921.8537597656255	187.3739318847657	103.288688659668	-1079.32568359375	130.6329345703126	105.4513549804688	-1071.521850585938	100.9496612548829	63.49206542968753	-1037.998413085938	427.585876464844	769.5715332031255	-613.9635009765627	378.5043334960939	428.1600036621096	-541.0762939453127	262.0842590332032	410.8089599609377	-565.5462036132815	378.4654541015626	368.9572143554689	-503.170104980469	334.0155639648439	344.5025939941407	-564.449157714844	313.0723266601564	76.32196044921878	-381.3688049316407	233.4348602294923	90.04766082763675	-427.9480590820315	252.0454559326173	49.02491760253909	-335.7899475097657	250.6686859130861	21.71023559570313	-519.9896240234377	314.3970947265626	28.3253688812256	-523.5527954101565	355.3459472656251	16.85479736328126	-459.2247314453127	257.7262268066407	1350.029296875	-598.393493652344	255.1382446289064	1122.179565429688	-532.101257324219	241.1713409423829	1126.994995117188	-768.986938476563	243.629852294922	1290.495361328125	-725.2766113281252	170.7858886718751	1158.220825195313	-522.1655883789065	177.5083160400391	1289.84814453125	-543.5480957031252	65.69543457031253	1286.864379882813	-600.2384033203127	71.63558197021487	1297.903198242188	-643.2744750976565	-6.48390626907349	1027.073486328125	-562.058288574219	73.8173522949219	992.171508789063	-554.3297119140627	29.74868392944337	999.6342163085942	-534.854431152344	-9.917181015014652	779.8420410156255	-596.1499023437502	-62.36297988891604	798.893676757813	-536.5428466796877	-27.01482963562013	692.6704711914065	-596.7570800781252	-68.76375579833987	725.734558105469	-508.4061584472659	380.3879394531251	1165.680419921875	-544.548522949219	351.8337707519532	1286.077514648438	-565.5930175781252	446.7572326660159	1286.280395507813	-656.9385986328127	426.1481628417971	1291.47412109375	-703.0758056640627	525.2693481445315	999.500122070313	-735.3194580078127	454.4438476562502	967.1101684570317	-706.4285278320315	500.5936584472659	960.722045898438	-713.2512207031252	472.8498229980471	863.4487915039067	-918.5879516601567	540.4732666015627	835.4431762695317	-882.2936401367192	483.7961425781252	805.598754882813	-992.6381225585942	537.7989501953127	762.6262207031252	-917.2285156250005	
115	1.14	135.5445251464844	847.8535156250005	-752.175476074219	197.0957336425782	882.195922851563	-570.3927001953127	284.6357727050782	885.5767211914067	-565.0247192382815	375.9014587402345	852.7236328125005	-736.7297973632815	74.30635070800784	757.869812011719	-686.271667480469	105.7425765991212	423.9490661621096	-810.968627929688	222.4514923095704	423.9695434570315	-843.9573364257817	105.2640228271485	363.0089416503907	-814.922729492188	142.7833557128907	370.4765014648439	-887.5588378906255	143.1446533203126	65.19643402099612	-945.6857299804692	224.2755279541017	91.98754882812503	-972.4982910156255	198.2799072265626	13.853346824646	-931.5187377929692	190.5540924072266	99.69548034667974	-1090.37109375	133.7943420410157	101.7780227661133	-1082.769287109375	104.2521667480469	60.42741394042972	-1048.684814453125	427.3334045410159	768.4567260742192	-625.5210571289065	378.7897949218751	427.9391174316409	-549.7134399414065	262.482635498047	409.9548645019534	-574.502136230469	379.0088500976564	369.2393798828126	-510.8343200683596	334.472381591797	343.6502380371095	-571.568298339844	313.9043884277345	79.10060119628909	-382.7062072753907	234.3028869628907	92.07302093505862	-429.4849853515627	253.0526275634767	52.93588638305667	-336.3885498046876	251.1146850585939	21.92336082458497	-520.2122192382815	314.7105102539064	28.34387969970705	-523.8972778320315	355.5132141113282	16.99044036865235	-459.5007019042971	256.4281311035157	1348.50634765625	-609.6386718750002	254.1630249023439	1120.357543945313	-544.1647949218752	240.1353454589845	1125.552612304688	-780.9414062500005	242.3063507080079	1288.983642578125	-736.907897949219	169.7715454101563	1156.19189453125	-534.0032348632815	176.2167510986329	1287.968017578125	-555.136169433594	64.29582214355472	1284.770629882813	-611.859069824219	70.21441650390628	1295.884033203125	-654.8594970703127	-7.260043144226078	1024.847900390625	-573.904724121094	73.05122375488284	989.9409790039067	-566.5208129882815	29.10925674438478	997.4941406250005	-546.7979736328127	-10.80492019653321	777.6657714843755	-607.7366333007815	-62.99400711059573	796.762329101563	-547.9092407226565	-27.96235466003419	690.482116699219	-608.1270141601565	-69.2608337402344	723.674743652344	-519.6785278320315	379.0570678710939	1164.104736328125	-556.133483886719	350.427947998047	1284.602294921875	-577.1199340820315	445.4067382812502	1284.819702148438	-668.5115356445315	424.7409362792971	1290.021606445313	-714.6357421875002	523.9997558593752	998.0283813476567	-746.614196777344	453.0633850097659	965.6439819335942	-717.9840087890627	499.1831359863284	959.1809082031255	-724.7077636718752	471.6539611816409	862.344360351563	-930.2607421875005	539.133239746094	834.126586914063	-893.8715820312505	482.7395324707034	804.8551635742192	-1004.467834472657	536.409118652344	761.4332275390627	-929.083862304688	
